<svg width="632" height="557" viewBox="0 0 632 557" fill="none" xmlns="http://www.w3.org/2000/svg">
<path d="M250 0C388.071 0 500 111.929 500 250C500 299.845 485.41 346.282 460.271 385.276L631.272 556.277C631.472 556.476 631.568 556.739 631.564 557H434.005L354.283 477.278C354.118 477.354 353.952 477.427 353.787 477.503L249.284 373L220.562 401.722L311.275 492.435C291.668 497.375 271.141 500 250 500C111.929 500 0 388.071 0 250C0 111.929 111.929 0 250 0ZM250 150C194.772 150 150 194.772 150 250C150 303.59 192.155 347.333 245.113 349.881L334.288 260.707C334.679 260.317 335.312 260.317 335.702 260.707L347.465 272.47C349.123 265.247 350 257.726 350 250C350 194.772 305.228 150 250 150Z" fill="url(#paint0_linear_60_28)"/>
<defs>
<linearGradient id="paint0_linear_60_28" x1="285.497" y1="309.497" x2="582.482" y2="606.482" gradientUnits="userSpaceOnUse">
<stop stop-color="#00CD7E"/>
<stop offset="0.653846" stop-color="#007D4C"/>
</linearGradient>
</defs>
</svg>
